Coordinates
version=1
nRows=4
nColumns=63
inDegrees=yes

Units are S.I. units (second, meters, Newtons, ...)
If the header above contains a line with 'inDegrees', this indicates whether rotational values are in degrees (yes) or radians (no).

endheader
time	pelvis_tilt	pelvis_list	pelvis_rotation	pelvis_tx	pelvis_ty	pelvis_tz	hip_flexion_r	hip_adduction_r	hip_rotation_r	knee_angle_r	knee_angle_r_beta	ankle_angle_r	subtalar_angle_r	mtp_angle_r	hip_flexion_l	hip_adduction_l	hip_rotation_l	knee_angle_l	knee_angle_l_beta	ankle_angle_l	subtalar_angle_l	mtp_angle_l	L5_S1_Flex_Ext	L5_S1_Lat_Bending	L5_S1_axial_rotation	L4_L5_Flex_Ext	L4_L5_Lat_Bending	L4_L5_axial_rotation	L3_L4_Flex_Ext	L3_L4_Lat_Bending	L3_L4_axial_rotation	L2_L3_Flex_Ext	L2_L3_Lat_Bending	L2_L3_axial_rotation	L1_L2_Flex_Ext	L1_L2_Lat_Bending	L1_L2_axial_rotation	L1_T12_Flex_Ext	L1_T12_Lat_Bending	L1_T12_axial_rotation	Abs_r3	Abs_r2	Abs_r1	Abs_t1	Abs_t2	neck_flexion	neck_bending	neck_rotation	arm_flex_r	arm_add_r	arm_rot_r	elbow_flex_r	pro_sup_r	wrist_flex_r	wrist_dev_r	arm_flex_l	arm_add_l	arm_rot_l	elbow_flex_l	pro_sup_l	wrist_flex_l	wrist_dev_l
      3.84000000	      2.34546696	    -10.03390475	     93.89045502	      0.22200989	      1.08232417	      0.44524891	      7.75420192	      0.14476764	     -5.35465950	      9.97566359	      0.17410817	     24.29472189	     16.77675242	      0.00000000	      9.81795307	     -3.30545220	      0.88646405	     10.20004899	      0.17802444	     22.43425303	      0.59716439	      0.00000000	      0.09176186	      0.45248018	      0.67663287	      0.17041095	      0.60179865	      0.71892243	      0.15075556	      1.10016032	      0.71892243	      0.10487463	      1.10016032	      0.59205376	      0.08521006	      0.92269759	      0.54976421	      0.05243273	      0.70089181	      0.50747465	      0.65544578	      5.11854634	      3.76322904	      0.00000000	      0.00000000	     28.11742311	     -0.75042317	     11.77722553	     14.56353477	    -16.79918941	    117.72514754	      4.53775646	      2.40882240	     -6.73466524	     -9.64764441	     14.49481691	    -13.69244099	    133.71095951	      6.06071329	     11.45554234	     -6.64926433	     -2.61723533
      3.86000000	      2.08358076	    -10.12452309	     93.78733007	      0.22218499	      1.08295865	      0.44553299	      7.90463200	     -0.10681918	     -5.18721553	      9.83113812	      0.17158573	     24.52476457	     16.74328002	      0.00000000	      9.86055863	     -3.05600924	      0.58858642	     10.12484287	      0.17671184	     21.96295120	      0.76937339	      0.00000000	      0.09859656	      0.40014976	      0.71528135	      0.18310368	      0.53219918	      0.75998644	      0.16198430	      0.97292412	      0.75998644	      0.11268601	      0.97292412	      0.62587118	      0.09155677	      0.81598539	      0.58116610	      0.05633808	      0.61983198	      0.53646102	      0.70426540	      4.52657410	      3.97818030	      0.00000000	      0.00000000	     28.09457323	     -0.95620566	     10.78740942	     14.81791287	    -16.16912018	    119.28404582	      3.93357300	      2.40529139	     -6.24281233	     -9.68795476	     14.71693925	    -13.82902038	    130.93735424	      6.23689386	      8.78535860	     -5.90810066	     -3.00181748
      3.88000000	      1.91272609	    -10.28229452	     93.83093363	      0.22235111	      1.08373693	      0.44590611	      8.12250058	     -0.28181930	     -5.26710995	      9.70508745	      0.16938573	     24.53210266	     16.69622339	      0.00000000	     10.04125590	     -2.88978819	      0.31058944	     10.13591027	      0.17690501	     21.43408751	      0.98092927	      0.00000000	      0.10470034	      0.35323882	      0.71822294	      0.19443901	      0.46980764	      0.76311188	      0.17201219	      0.85886488	      0.76311188	      0.11966202	      0.85886488	      0.62844507	      0.09722474	      0.72032461	      0.58355614	      0.05982578	      0.54716694	      0.53866721	      0.74786408	      3.99590822	      3.99454053	      0.00000000	      0.00000000	     28.06880338	     -0.98347107	      9.77028983	     15.40132407	    -15.30308865	    121.35312906	      3.06079258	      2.08206312	     -5.51844443	     -9.62992574	     15.14658901	    -13.89983678	    129.45764375	      6.56984263	      7.88538471	     -5.99111355	     -3.67698870
      3.90000000	      1.80139569	    -10.46439422	     94.05754337	      0.22225999	      1.08462746	      0.44645221	      8.32591887	     -0.43098830	     -5.49257633	      9.53123151	      0.16635137	     24.39975962	     16.66337510	      0.00000000	     10.27965467	     -2.74562152	      0.23209095	     10.15046331	      0.17715901	     21.00066643	      1.23421648	      0.00000000	      0.11399750	      0.31220278	      0.69697516	      0.21170476	      0.41522970	      0.74053611	      0.18728650	      0.75908985	      0.74053611	      0.13028775	      0.75908985	      0.60985327	      0.10585808	      0.63664391	      0.56629232	      0.06513817	      0.48360211	      0.52273137	      0.81427277	      3.53170032	      3.87636677	      0.00000000	      0.00000000	     28.03828354	     -0.97702827	      8.58097785	     16.25054543	    -14.36677671	    123.29999685	      2.23233448	      1.85039970	     -4.64612126	     -9.50855657	     15.86776591	    -13.82715546	    129.45863290	      7.12571602	      8.54087162	     -6.50326700	     -4.33465552
